<svg width="105" height="113" viewBox="0 0 105 113" fill="none" xmlns="http://www.w3.org/2000/svg">
<path d="M68.5816 27.1045C68.9085 24.4113 69.0829 21.8086 69.0829 19.4042C69.0829 2.79043 60.7607 -0.00345652 51.2925 -0.00345651C41.8243 -0.0034565 34.4725 2.79042 34.4725 19.4042C34.4725 21.5803 34.5988 23.9188 34.8392 26.34C32.8994 24.8811 30.9662 23.5724 29.0997 22.468C14.8016 14.0073 8.15898 19.7467 3.33738 27.8951C-1.48454 36.0436 -2.82387 43.7935 11.4741 52.2542C13.7561 53.6046 16.3412 54.9166 19.0938 56.135C16.2705 57.3318 13.6266 58.641 11.3083 60.0118C-2.99287 68.4678 -1.16202 77.0534 3.65705 85.2034C8.47613 93.3536 14.6228 98.2598 28.924 89.8038C30.963 88.5981 33.0921 87.1658 35.2293 85.5724C34.9457 88.2233 34.7959 90.7847 34.7959 93.1535C34.7959 109.767 42.1477 112.561 51.6159 112.561C61.0841 112.561 69.4063 109.767 69.4063 93.1535C69.4063 90.9848 69.2645 88.6547 68.9969 86.2424C70.9583 87.6823 72.9063 88.9817 74.7791 90.0899C89.0772 98.5506 95.2255 93.6463 100.047 85.4978C104.869 77.3494 106.703 68.7644 92.4046 60.3037C90.1328 58.9593 87.548 57.674 84.7878 56.4956C87.6014 55.258 90.2434 53.9219 92.5705 52.546C106.872 44.09 105.535 36.3397 100.715 28.1896C95.8964 20.0396 89.256 14.2979 74.9548 22.7539C72.8851 23.9776 70.7333 25.4523 68.5816 27.1045Z" fill="#FF9B38"/>
</svg>
