<svg xmlns="http://www.w3.org/2000/svg" width="32" height="35" viewBox="0 0 32 35" fill="none">
  <path d="M5.6909 17.3625C4.93173 17.6956 4.22011 18.0548 3.58779 18.429C-0.7815 21.0144 -0.221151 23.6379 1.2523 26.128C2.72576 28.618 4.60463 30.1167 8.97392 27.5312C9.54621 27.1926 10.1415 26.7954 10.7409 26.3554C10.6591 27.0926 10.6158 27.8047 10.6158 28.4674C10.6158 33.5444 13.1589 34.3982 16.0522 34.3981C18.9456 34.3982 21.1922 33.5443 21.1922 28.4674C21.1922 27.6571 21.135 26.7731 21.027 25.8596C21.7812 26.4158 22.5369 26.9074 23.2582 27.3038C27.7076 29.7489 29.6806 27.9313 31.0741 25.3956C32.4675 22.8599 32.8013 20.4799 28.3519 18.0347C27.7175 17.6861 27.0095 17.3491 26.2578 17.035C26.9991 16.6971 27.696 16.3378 28.319 15.9692C32.6883 13.3837 32.279 11.0155 30.8055 8.52541C29.332 6.03535 27.3022 4.28148 22.9329 6.86694C22.3625 7.20445 21.7718 7.60435 21.179 8.05013C21.2525 7.31024 21.2911 6.59571 21.291 5.93071C21.2911 0.853787 19.0445 4.90476e-05 16.1511 1.38556e-06C13.2578 3.67973e-05 10.7146 0.853804 10.7146 5.93073C10.7146 6.73741 10.7788 7.61723 10.8985 8.52651C10.1352 7.97916 9.37262 7.49225 8.6486 7.09438C4.19918 4.64922 2.36901 6.20699 0.975554 8.74269C-0.417884 11.2784 -0.89448 13.9183 3.55493 16.3634C4.19884 16.7173 4.92154 17.0537 5.6909 17.3625Z" fill="#2A2A2A"/>
</svg>