<svg width="20" height="20" viewBox="0 0 20 20" fill="none" xmlns="http://www.w3.org/2000/svg">
<path d="M7 16C6.45 16 5.97917 15.8042 5.5875 15.4125C5.19583 15.0208 5 14.55 5 14V2C5 1.45 5.19583 0.979167 5.5875 0.5875C5.97917 0.195833 6.45 0 7 0H16C16.55 0 17.0208 0.195833 17.4125 0.5875C17.8042 0.979167 18 1.45 18 2V14C18 14.55 17.8042 15.0208 17.4125 15.4125C17.0208 15.8042 16.55 16 16 16H7ZM7 14H16V2H7V14ZM3 20C2.45 20 1.97917 19.8042 1.5875 19.4125C1.19583 19.0208 1 18.55 1 18V4H3V18H14V20H3Z" fill="#737373"/>
</svg>
