<svg width="192" height="224" viewBox="0 0 192 224" fill="none" xmlns="http://www.w3.org/2000/svg">
<g opacity="0.5">
<rect x="31.999" y="160" width="31.9996" height="31.9996" transform="rotate(-90 31.999 160)" fill="#FF9B38" fill-opacity="0.35"/>
<rect x="64" y="128" width="31.9996" height="31.9996" transform="rotate(-90 64 128)" fill="#FF9B38" fill-opacity="0.35"/>
<rect x="32" y="96" width="31.9996" height="31.9996" transform="rotate(-90 32 96)" fill="#FF9B38" fill-opacity="0.35"/>
<rect x="95.9993" y="160" width="31.9996" height="31.9996" transform="rotate(-90 95.9993 160)" fill="#FF9B38" fill-opacity="0.35"/>
<rect x="95.9993" y="96" width="31.9996" height="31.9996" transform="rotate(-90 95.9993 96)" fill="#FF9B38" fill-opacity="0.35"/>
<rect x="64" y="64.0078" width="31.9996" height="31.9996" transform="rotate(-90 64 64.0078)" fill="#FF9B38" fill-opacity="0.35"/>
<rect x="95.9993" y="32" width="31.9996" height="31.9996" transform="rotate(-90 95.9993 32)" fill="#FF9B38" fill-opacity="0.35"/>
<rect x="32" y="32" width="31.9996" height="31.9996" transform="rotate(-90 32 32)" fill="#FF9B38" fill-opacity="0.35"/>
<rect x="128.001" y="128" width="31.9996" height="31.9996" transform="rotate(-90 128.001 128)" fill="#FF9B38" fill-opacity="0.35"/>
<rect x="160" y="160" width="31.9996" height="31.9996" transform="rotate(-90 160 160)" fill="#FF9B38" fill-opacity="0.35"/>
<rect x="160" y="96" width="31.9996" height="31.9996" transform="rotate(-90 160 96)" fill="#FF9B38" fill-opacity="0.35"/>
<rect x="160" y="32" width="31.9996" height="31.9996" transform="rotate(-90 160 32)" fill="#FF9B38" fill-opacity="0.35"/>
<rect x="128.001" y="64.0078" width="31.9996" height="31.9996" transform="rotate(-90 128.001 64.0078)" fill="#FF9B38" fill-opacity="0.35"/>
</g>
<g opacity="0.5">
<rect x="0.000244141" y="192.008" width="31.9996" height="31.9998" transform="rotate(-90 0.000244141 192.008)" fill="#FF9B38" fill-opacity="0.35"/>
<rect x="31.9995" y="224.008" width="31.9996" height="31.9998" transform="rotate(-90 31.9995 224.008)" fill="#FF9B38" fill-opacity="0.35"/>
<rect x="31.9995" y="160.008" width="31.9996" height="31.9998" transform="rotate(-90 31.9995 160.008)" fill="#FF9B38" fill-opacity="0.35"/>
<rect x="0.000244141" y="128.016" width="31.9996" height="31.9998" transform="rotate(-90 0.000244141 128.016)" fill="#FF9B38" fill-opacity="0.35"/>
<rect x="31.9995" y="96.0078" width="31.9996" height="31.9998" transform="rotate(-90 31.9995 96.0078)" fill="#FF9B38" fill-opacity="0.35"/>
<rect x="64.002" y="192.008" width="31.9996" height="31.9998" transform="rotate(-90 64.002 192.008)" fill="#FF9B38" fill-opacity="0.35"/>
<rect x="96.0002" y="224.008" width="31.9996" height="31.9998" transform="rotate(-90 96.0002 224.008)" fill="#FF9B38" fill-opacity="0.35"/>
<rect x="96.0002" y="160.008" width="31.9996" height="31.9998" transform="rotate(-90 96.0002 160.008)" fill="#FF9B38" fill-opacity="0.35"/>
<rect x="96.0002" y="96.0078" width="31.9996" height="31.9998" transform="rotate(-90 96.0002 96.0078)" fill="#FF9B38" fill-opacity="0.35"/>
<rect x="64.002" y="128.016" width="31.9996" height="31.9998" transform="rotate(-90 64.002 128.016)" fill="#FF9B38" fill-opacity="0.35"/>
</g>
</svg>
