<svg width="20" height="22" viewBox="0 0 20 22" fill="none" xmlns="http://www.w3.org/2000/svg">
<path d="M13.0985 5.17799C13.1609 4.66361 13.1942 4.16652 13.1942 3.70732C13.1942 0.534229 11.6048 0.000623468 9.79642 0.000623463C7.98808 0.000623945 6.58395 0.53423 6.58395 3.70732C6.58395 4.12293 6.60809 4.56956 6.654 5.03198C6.28351 4.75334 5.91429 4.50341 5.5578 4.29246C2.82701 2.67655 1.55832 3.77272 0.637435 5.329C-0.283508 6.88529 -0.539308 8.36544 2.19148 9.98136C2.62731 10.2393 3.12105 10.4898 3.64677 10.7226C3.10754 10.9511 2.60258 11.2012 2.15981 11.463C-0.571583 13.078 -0.22191 14.7178 0.69849 16.2744C1.61889 17.831 2.79286 18.768 5.52425 17.153C5.91368 16.9227 6.32031 16.6492 6.72851 16.3448C6.67433 16.8511 6.64573 17.3403 6.64573 17.7928C6.64573 20.9658 8.04986 21.4995 9.8582 21.4995C11.6665 21.4995 13.256 20.9658 13.256 17.7928C13.256 17.3785 13.2289 16.9335 13.1778 16.4728C13.5524 16.7478 13.9245 16.996 14.2822 17.2076C17.013 18.8235 18.1872 17.8869 19.1082 16.3306C20.029 14.7743 20.3793 13.1347 17.6485 11.5187C17.2146 11.262 16.7209 11.0165 16.1937 10.7914C16.7311 10.5551 17.2357 10.2999 17.6801 10.0371C20.4115 8.42207 20.1562 6.94184 19.2358 5.38524C18.3154 3.82866 17.0471 2.73206 14.3157 4.34708C13.9204 4.5808 13.5095 4.86245 13.0985 5.17799Z" fill="#05DA5B"/>
</svg>
