<svg width="1370" height="281" viewBox="0 0 1370 281" fill="none" xmlns="http://www.w3.org/2000/svg">
<path d="M200.571 191.516C194.96 191.516 189.906 190.126 185.408 187.347C180.859 184.567 177.195 180.827 174.415 176.126C171.686 171.426 170.321 166.17 170.321 160.357V111.155C170.321 105.494 171.711 100.339 174.491 95.6891C177.22 90.9887 180.885 87.2486 185.484 84.4688C190.083 81.6385 195.112 80.2233 200.571 80.2233C206.282 80.2233 211.437 81.588 216.036 84.3172C220.636 87.097 224.275 90.8118 226.953 95.4617C229.683 100.112 231.047 105.343 231.047 111.155V118.281C231.047 118.686 230.795 118.888 230.289 118.888H212.852C212.448 118.888 212.246 118.686 212.246 118.281V112.368C212.246 108.426 211.134 105.166 208.91 102.588C206.686 100.01 203.906 98.7216 200.571 98.7216C197.589 98.7216 194.935 99.9599 192.61 102.436C190.285 104.913 189.123 107.819 189.123 111.155V160.357C189.123 163.744 190.26 166.675 192.534 169.152C194.809 171.578 197.488 172.791 200.571 172.791C203.906 172.791 206.686 171.603 208.91 169.227C211.134 166.801 212.246 163.845 212.246 160.357V152.7H201.404C200.849 152.7 200.571 152.447 200.571 151.942V134.581C200.571 134.076 200.849 133.823 201.404 133.823H230.441C230.845 133.823 231.047 134.076 231.047 134.581V160.357C231.047 166.17 229.683 171.426 226.953 176.126C224.174 180.827 220.509 184.567 215.961 187.347C211.412 190.126 206.282 191.516 200.571 191.516ZM260.235 190H242.647C242.242 190 242.04 189.747 242.04 189.242L242.343 82.5735C242.343 82.1692 242.545 81.967 242.95 81.967H274.336C279.946 81.967 285.102 83.3317 289.802 86.0609C294.502 88.7902 298.242 92.4544 301.022 97.0537C303.853 101.653 305.268 106.859 305.268 112.671C305.268 116.462 304.687 119.899 303.524 122.982C302.362 126.065 300.997 128.668 299.43 130.79C297.914 132.913 296.524 134.48 295.261 135.491C300.871 141.707 303.676 149.011 303.676 157.401L303.827 189.242C303.827 189.747 303.575 190 303.069 190H285.481C285.076 190 284.874 189.848 284.874 189.545V157.401C284.874 153.66 283.56 150.426 280.932 147.697C278.304 144.967 275.069 143.603 271.228 143.603H260.993L260.842 189.242C260.842 189.747 260.639 190 260.235 190ZM274.336 100.541H260.993V124.953H274.336C277.52 124.953 280.351 123.765 282.827 121.39C285.354 119.014 286.618 116.108 286.618 112.671C286.618 109.386 285.405 106.556 282.979 104.18C280.553 101.754 277.672 100.541 274.336 100.541ZM345.373 190H326.571C326.116 190 325.864 189.747 325.813 189.242L307.466 82.5735C307.365 82.1692 307.517 81.967 307.921 81.967H325.358C325.762 81.967 326.015 82.1692 326.116 82.5735L336.048 152.7L346.282 82.5735C346.383 82.1692 346.687 81.967 347.192 81.967H361.217C361.622 81.967 361.875 82.1692 361.976 82.5735L372.059 152.7L382.142 82.5735C382.243 82.1692 382.496 81.967 382.9 81.967H400.185C400.691 81.967 400.893 82.1692 400.792 82.5735L382.293 189.242C382.243 189.444 382.091 189.621 381.839 189.773L381.535 190H362.734C362.43 190 362.178 189.747 361.976 189.242L354.015 133.52L346.131 189.242C346.08 189.747 345.828 190 345.373 190ZM581.681 190H531.493C531.088 190 530.886 189.747 530.886 189.242L531.038 82.7251C531.038 82.2197 531.29 81.967 531.796 81.967H549.081C549.587 81.967 549.839 82.2197 549.839 82.7251L549.688 170.895H581.681C582.186 170.895 582.439 171.148 582.439 171.653V189.242C582.439 189.747 582.186 190 581.681 190ZM666.06 190H648.547C648.092 190 647.865 189.747 647.865 189.242V100.693H627.699C627.193 100.693 626.941 100.44 626.941 99.9346L627.092 82.5735C627.092 82.1692 627.294 81.967 627.699 81.967H686.681C687.237 81.967 687.515 82.1692 687.515 82.5735V99.9346C687.515 100.44 687.313 100.693 686.908 100.693H666.515L666.666 189.242C666.666 189.747 666.464 190 666.06 190ZM720.645 191.516C715.136 191.516 710.057 190.101 705.407 187.271C700.807 184.44 697.093 180.675 694.262 175.975C691.483 171.224 690.093 166.018 690.093 160.357L690.244 111.155C690.244 105.393 691.634 100.213 694.414 95.6133C697.143 90.9635 700.833 87.2486 705.483 84.4688C710.132 81.6385 715.187 80.2233 720.645 80.2233C726.306 80.2233 731.385 81.6132 735.883 84.393C740.432 87.1728 744.071 90.9129 746.8 95.6133C749.58 100.263 750.97 105.444 750.97 111.155L751.122 160.357C751.122 166.018 749.757 171.198 747.028 175.899C744.248 180.65 740.559 184.44 735.959 187.271C731.36 190.101 726.255 191.516 720.645 191.516ZM720.645 172.791C723.779 172.791 726.508 171.527 728.833 169C731.158 166.422 732.32 163.541 732.32 160.357L732.169 111.155C732.169 107.718 731.082 104.812 728.909 102.436C726.735 100.061 723.981 98.8732 720.645 98.8732C717.461 98.8732 714.732 100.036 712.457 102.361C710.183 104.686 709.046 107.617 709.046 111.155V160.357C709.046 163.744 710.183 166.675 712.457 169.152C714.732 171.578 717.461 172.791 720.645 172.791Z" fill="#1C1C1C"/>
<path d="M477.821 106.417C478.148 103.724 478.322 101.121 478.322 98.7167C478.322 82.1029 470 79.309 460.532 79.309C451.064 79.309 443.712 82.1029 443.712 98.7167C443.712 100.893 443.838 103.231 444.079 105.652C442.139 104.194 440.206 102.885 438.339 101.78C424.041 93.3198 417.398 99.0592 412.577 107.208C407.755 115.356 406.416 123.106 420.714 131.567C422.996 132.917 425.581 134.229 428.333 135.447C425.51 136.644 422.866 137.953 420.548 139.324C406.247 147.78 408.077 156.366 412.897 164.516C417.716 172.666 423.862 177.572 438.164 169.116C440.203 167.911 442.332 166.478 444.469 164.885C444.185 167.536 444.035 170.097 444.035 172.466C444.035 189.08 451.387 191.874 460.855 191.874C470.324 191.874 478.646 189.08 478.646 172.466C478.646 170.297 478.504 167.967 478.236 165.555C480.198 166.995 482.146 168.294 484.019 169.402C498.317 177.863 504.465 172.959 509.287 164.81C514.108 156.662 515.942 148.077 501.644 139.616C499.372 138.272 496.787 136.986 494.027 135.808C496.841 134.571 499.483 133.234 501.81 131.858C516.111 123.402 514.774 115.652 509.955 107.502C505.136 99.3521 498.495 93.6104 484.194 102.066C482.125 103.29 479.973 104.765 477.821 106.417Z" fill="#FF9B38"/>
<path d="M836.366 190H817.564C817.109 190 816.857 189.747 816.806 189.242L798.459 82.5735C798.358 82.1692 798.51 81.967 798.914 81.967H816.351C816.755 81.967 817.008 82.1692 817.109 82.5735L827.041 152.7L837.275 82.5735C837.377 82.1692 837.68 81.967 838.185 81.967H852.211C852.615 81.967 852.868 82.1692 852.969 82.5735L863.052 152.7L873.135 82.5735C873.236 82.1692 873.489 81.967 873.893 81.967H891.178C891.684 81.967 891.886 82.1692 891.785 82.5735L873.286 189.242C873.236 189.444 873.084 189.621 872.832 189.773L872.528 190H853.727C853.424 190 853.171 189.747 852.969 189.242L845.008 133.52L837.124 189.242C837.073 189.747 836.821 190 836.366 190ZM926.431 191.516C920.922 191.516 915.843 190.101 911.193 187.271C906.593 184.44 902.879 180.675 900.048 175.975C897.268 171.224 895.879 166.018 895.879 160.357L896.03 111.155C896.03 105.393 897.42 100.213 900.2 95.6133C902.929 90.9635 906.619 87.2486 911.269 84.4688C915.918 81.6385 920.973 80.2233 926.431 80.2233C932.092 80.2233 937.171 81.6132 941.669 84.393C946.218 87.1728 949.857 90.9129 952.586 95.6133C955.366 100.263 956.756 105.444 956.756 111.155L956.908 160.357C956.908 166.018 955.543 171.198 952.814 175.899C950.034 180.65 946.345 184.44 941.745 187.271C937.146 190.101 932.041 191.516 926.431 191.516ZM926.431 172.791C929.565 172.791 932.294 171.527 934.619 169C936.944 166.422 938.106 163.541 938.106 160.357L937.955 111.155C937.955 107.718 936.868 104.812 934.695 102.436C932.521 100.061 929.767 98.8732 926.431 98.8732C923.247 98.8732 920.518 100.036 918.243 102.361C915.969 104.686 914.832 107.617 914.832 111.155V160.357C914.832 163.744 915.969 166.675 918.243 169.152C920.518 171.578 923.247 172.791 926.431 172.791ZM986.854 190H969.265C968.861 190 968.659 189.747 968.659 189.242L968.962 82.5735C968.962 82.1692 969.164 81.967 969.568 81.967H1000.95C1006.57 81.967 1011.72 83.3317 1016.42 86.0609C1021.12 88.7902 1024.86 92.4544 1027.64 97.0537C1030.47 101.653 1031.89 106.859 1031.89 112.671C1031.89 116.462 1031.31 119.899 1030.14 122.982C1028.98 126.065 1027.62 128.668 1026.05 130.79C1024.53 132.913 1023.14 134.48 1021.88 135.491C1027.49 141.707 1030.29 149.011 1030.29 157.401L1030.45 189.242C1030.45 189.747 1030.19 190 1029.69 190H1012.1C1011.69 190 1011.49 189.848 1011.49 189.545V157.401C1011.49 153.66 1010.18 150.426 1007.55 147.697C1004.92 144.967 1001.69 143.603 997.847 143.603H987.612L987.46 189.242C987.46 189.747 987.258 190 986.854 190ZM1000.95 100.541H987.612V124.953H1000.95C1004.14 124.953 1006.97 123.765 1009.45 121.39C1011.97 119.014 1013.24 116.108 1013.24 112.671C1013.24 109.386 1012.02 106.556 1009.6 104.18C1007.17 101.754 1004.29 100.541 1000.95 100.541ZM1094.36 190H1044.17C1043.76 190 1043.56 189.747 1043.56 189.242L1043.71 82.7251C1043.71 82.2197 1043.97 81.967 1044.47 81.967H1061.76C1062.26 81.967 1062.51 82.2197 1062.51 82.7251L1062.36 170.895H1094.36C1094.86 170.895 1095.11 171.148 1095.11 171.653V189.242C1095.11 189.747 1094.86 190 1094.36 190ZM1133.85 189.848L1106.03 190C1105.53 190 1105.27 189.747 1105.27 189.242L1105.58 82.5735C1105.58 82.1692 1105.78 81.967 1106.18 81.967L1135.22 81.8154C1140.98 81.6638 1146.19 82.9779 1150.84 85.7577C1155.54 88.5374 1159.28 92.3028 1162.06 97.0537C1164.89 101.754 1166.3 106.96 1166.3 112.671V157.249C1166.3 163.213 1164.86 168.671 1161.98 173.624C1159.05 178.527 1155.16 182.444 1150.31 185.375C1145.45 188.256 1139.97 189.747 1133.85 189.848ZM1135.22 100.389L1124.38 100.541L1124.23 170.895H1133.85C1137.7 170.895 1140.93 169.556 1143.56 166.877C1146.19 164.198 1147.5 160.989 1147.5 157.249V112.52C1147.5 109.234 1146.29 106.379 1143.86 103.953C1141.44 101.476 1138.55 100.288 1135.22 100.389ZM1193.14 161.419H1182.53C1182.07 161.419 1181.82 161.166 1181.77 160.661L1178.51 124.953V82.7251C1178.51 82.2197 1178.71 81.967 1179.11 81.967H1196.55C1197.06 81.967 1197.31 82.2197 1197.31 82.7251L1197.16 124.953L1193.9 160.661C1193.85 161.166 1193.59 161.419 1193.14 161.419ZM1196.55 190H1179.11C1178.71 190 1178.51 189.747 1178.51 189.242V172.336C1178.51 171.881 1178.71 171.653 1179.11 171.653H1196.55C1196.96 171.653 1197.16 171.881 1197.16 172.336V189.242C1197.16 189.747 1196.96 190 1196.55 190Z" fill="#05DA5B"/>
</svg>
