<svg xmlns="http://www.w3.org/2000/svg" width="90" height="95" viewBox="0 0 90 95" fill="none">
  <path d="M16.0057 47.699C13.8705 48.6142 11.8691 49.601 10.0907 50.6289C-2.19797 57.7318 -0.622002 64.9391 3.52209 71.7799C7.66619 78.6207 12.9505 82.7379 25.2391 75.635C26.8487 74.7046 28.5231 73.6136 30.2087 72.4048C29.9787 74.43 29.8568 76.3862 29.8569 78.207C29.8568 92.1545 37.0094 94.5001 45.1469 94.5C53.2845 94.5001 59.603 92.1545 59.603 78.2069C59.6031 75.9809 59.4421 73.5522 59.1385 71.0426C61.2595 72.5708 63.385 73.9213 65.4137 75.0101C77.9276 81.7276 83.4768 76.7342 87.3958 69.768C91.3149 62.8018 92.2536 56.2632 79.7396 49.5458C77.9553 48.5881 75.9641 47.6622 73.85 46.7993C75.9349 45.8709 77.895 44.884 79.6472 43.8712C91.9358 36.7683 90.7846 30.2622 86.6405 23.4214C82.4964 16.5806 76.7873 11.7623 64.4987 18.8652C62.8946 19.7924 61.2332 20.891 59.566 22.1157C59.7726 20.083 59.8811 18.12 59.881 16.2931C59.8811 2.34556 53.5625 0.00013482 45.4249 3.89688e-06C37.2875 0.000101198 30.1349 2.34561 30.1349 16.2932C30.1348 18.5093 30.3155 20.9264 30.6519 23.4244C28.5051 21.9207 26.3605 20.583 24.3242 19.49C11.8102 12.7726 6.66285 17.0521 2.74375 24.0183C-1.17529 30.9845 -2.51573 38.2369 9.99825 44.9544C11.8092 45.9265 13.8418 46.8507 16.0057 47.699Z" fill="#05DA5B"/>
</svg>