<svg width="43" height="43" viewBox="0 0 43 43" fill="none" xmlns="http://www.w3.org/2000/svg">
<rect width="42.3529" height="42.3529" rx="9.41177" fill="white"/>
<path d="M21.1768 10.5898C15.3298 10.5898 10.5885 15.3303 10.5885 21.1781C10.5885 25.8564 13.6224 29.8253 17.8294 31.2254C18.3586 31.3234 18.5529 30.9957 18.5529 30.716C18.5529 30.4635 18.543 29.6294 18.5385 28.7447C15.5928 29.3852 14.9712 27.4954 14.9712 27.4954C14.4896 26.2715 13.7956 25.9461 13.7956 25.9461C12.835 25.2889 13.868 25.3024 13.868 25.3024C14.9313 25.3771 15.4911 26.3936 15.4911 26.3936C16.4355 28.0123 17.9681 27.5443 18.5723 27.2738C18.6673 26.5894 18.9418 26.1224 19.2446 25.858C16.8928 25.5901 14.4205 24.6822 14.4205 20.6251C14.4205 19.4692 14.8341 18.5246 15.5115 17.7831C15.4015 17.5164 15.0391 16.4395 15.614 14.981C15.614 14.981 16.5032 14.6964 18.5266 16.0664C19.3711 15.8317 20.2769 15.7141 21.1768 15.7101C22.0766 15.7141 22.9831 15.8317 23.8293 16.0664C25.8503 14.6964 26.7382 14.981 26.7382 14.981C27.3145 16.4395 26.9519 17.5164 26.842 17.7831C27.5209 18.5246 27.9317 19.4691 27.9317 20.6251C27.9317 24.6919 25.4547 25.5874 23.097 25.8495C23.4767 26.1781 23.8151 26.8225 23.8151 27.8103C23.8151 29.227 23.8028 30.3672 23.8028 30.716C23.8028 30.9978 23.9934 31.3279 24.5302 31.224C28.7349 29.8223 31.765 25.8548 31.765 21.1781C31.765 15.3303 27.0244 10.5898 21.1768 10.5898Z" fill="#2A2A2A"/>
<path d="M14.5541 25.6717C14.5308 25.7243 14.448 25.7401 14.3727 25.704C14.2958 25.6695 14.2527 25.5977 14.2776 25.5449C14.3004 25.4908 14.3833 25.4757 14.4599 25.512C14.5369 25.5465 14.5808 25.6189 14.5541 25.6717ZM15.0749 26.1364C15.0245 26.1833 14.9257 26.1615 14.8587 26.0875C14.7894 26.0137 14.7765 25.915 14.8277 25.8675C14.8798 25.8207 14.9755 25.8426 15.045 25.9165C15.1142 25.9911 15.1277 26.0892 15.0749 26.1365L15.0749 26.1364ZM15.4323 26.731C15.3673 26.7761 15.2612 26.7338 15.1957 26.6397C15.1308 26.5456 15.1308 26.4327 15.1971 26.3874C15.2629 26.3421 15.3673 26.3828 15.4338 26.4762C15.4985 26.572 15.4985 26.6849 15.4322 26.7311L15.4323 26.731ZM16.0365 27.4197C15.9784 27.4836 15.8549 27.4665 15.7644 27.3792C15.6718 27.2938 15.646 27.1726 15.7042 27.1086C15.7629 27.0445 15.8873 27.0625 15.9784 27.1491C16.0704 27.2343 16.0984 27.3564 16.0366 27.4197H16.0365ZM16.8174 27.6522C16.7919 27.7351 16.6728 27.7728 16.5529 27.7376C16.4332 27.7013 16.3548 27.6041 16.379 27.5203C16.4039 27.4369 16.5234 27.3976 16.6443 27.4353C16.7639 27.4714 16.8424 27.5678 16.8175 27.6522H16.8174ZM17.7063 27.7508C17.7093 27.8381 17.6076 27.9106 17.4817 27.9121C17.355 27.9149 17.2526 27.8442 17.2513 27.7583C17.2513 27.6701 17.3507 27.5984 17.4773 27.5963C17.6032 27.5938 17.7063 27.664 17.7063 27.7508ZM18.5794 27.7173C18.5945 27.8025 18.507 27.89 18.382 27.9133C18.2591 27.9357 18.1453 27.8831 18.1296 27.7987C18.1144 27.7113 18.2036 27.6239 18.3262 27.6012C18.4514 27.5795 18.5635 27.6307 18.5794 27.7173Z" fill="#2A2A2A"/>
</svg>
