<svg width="186" height="40" viewBox="0 0 186 40" fill="none" xmlns="http://www.w3.org/2000/svg">
<path d="M12.117 30H1.43597C1.34992 30 1.3069 29.9462 1.3069 29.8387L1.33916 7.16967C1.33916 7.0621 1.39295 7.00832 1.50051 7.00832H5.17918C5.28674 7.00832 5.34052 7.0621 5.34052 7.16967L5.30825 25.9341H12.117C12.2246 25.9341 12.2784 25.9879 12.2784 26.0954V29.8387C12.2784 29.9462 12.2246 30 12.117 30ZM18.3449 30H14.6017C14.4942 30 14.4404 29.9462 14.4404 29.8387L14.4727 7.1374C14.4727 7.05135 14.5157 7.00832 14.6017 7.00832H18.3127C18.3987 7.00832 18.4417 7.05135 18.4417 7.1374L18.474 29.8387C18.474 29.9462 18.431 30 18.3449 30ZM25.2505 30H21.5073C21.4213 30 21.3782 29.9462 21.3782 29.8387L21.4428 7.16967C21.4428 7.0621 21.4858 7.00832 21.5718 7.00832H25.2828C25.3688 7.00832 25.4119 7.0621 25.4119 7.16967V14.9949L30.591 7.1374C30.6771 7.05135 30.7578 7.00832 30.8331 7.00832H34.6247C34.7215 7.00832 34.743 7.05135 34.6892 7.1374L28.9776 16.2534L35.383 29.8709C35.4368 29.957 35.383 30 35.2216 30H31.188C31.0804 30 31.0159 29.957 30.9944 29.8709L26.5251 20.1579L25.3796 21.965V29.8387C25.3796 29.9462 25.3366 30 25.2505 30ZM47.6775 30H36.9964C36.9104 30 36.8674 29.9462 36.8674 29.8387L36.8996 7.1374C36.8996 7.05135 36.9427 7.00832 37.0287 7.00832H47.6452C47.7313 7.00832 47.7743 7.0621 47.7743 7.16967V10.8645C47.7743 10.9505 47.7313 10.9935 47.6452 10.9935H40.8687V16.1566H47.6452C47.7313 16.1566 47.7743 16.1996 47.7743 16.2857L47.8066 20.0289C47.8066 20.1149 47.7635 20.1579 47.6775 20.1579H40.8687V25.9341H47.6775C47.7635 25.9341 47.8066 25.9879 47.8066 26.0954V29.8709C47.8066 29.957 47.7635 30 47.6775 30ZM61.5532 30H50.8721C50.7861 30 50.743 29.9462 50.743 29.8387L50.7753 7.16967C50.7753 7.0621 50.8291 7.00832 50.9367 7.00832H54.6153C54.7229 7.00832 54.7767 7.0621 54.7767 7.16967L54.7444 25.9341H61.5532C61.6607 25.9341 61.7145 25.9879 61.7145 26.0954V29.8387C61.7145 29.9462 61.6607 30 61.5532 30ZM67.7811 30H64.0379C63.9303 30 63.8765 29.9462 63.8765 29.8387L63.9088 7.1374C63.9088 7.05135 63.9518 7.00832 64.0379 7.00832H67.7488C67.8349 7.00832 67.8779 7.05135 67.8779 7.1374L67.9102 29.8387C67.9102 29.9462 67.8671 30 67.7811 30ZM100.163 30H96.8555C96.6834 30 96.5973 29.9247 96.5973 29.7741L96.5651 7.26647C96.5651 7.09437 96.6511 7.00832 96.8232 7.00832H99.8081L105.391 20.0289L105.229 7.26647C105.229 7.09437 105.326 7.00832 105.52 7.00832H108.795C108.924 7.00832 108.989 7.09437 108.989 7.26647L109.021 29.8064C109.021 29.9355 108.967 30 108.86 30H105.955L100.228 17.8346L100.47 29.7418C100.47 29.9139 100.367 30 100.163 30Z" fill="white"/>
<path d="M133.446 30H122.765C122.679 30 122.636 29.9462 122.636 29.8387L122.668 7.1374C122.668 7.05135 122.711 7.00832 122.797 7.00832H133.414C133.5 7.00832 133.543 7.0621 133.543 7.16967V10.8645C133.543 10.9505 133.5 10.9935 133.414 10.9935H126.637V16.1566H133.414C133.5 16.1566 133.543 16.1996 133.543 16.2857L133.575 20.0289C133.575 20.1149 133.532 20.1579 133.446 20.1579H126.637V25.9341H133.446C133.532 25.9341 133.575 25.9879 133.575 26.0954V29.8709C133.575 29.957 133.532 30 133.446 30ZM142.885 30H138.883C138.786 30 138.733 29.9462 138.722 29.8387L134.817 7.1374C134.796 7.05135 134.828 7.00832 134.914 7.00832H138.625C138.711 7.00832 138.765 7.05135 138.786 7.1374L140.9 22.0618L143.078 7.1374C143.1 7.05135 143.164 7.00832 143.272 7.00832H146.257C146.343 7.00832 146.396 7.05135 146.418 7.1374L148.564 22.0618L150.71 7.1374C150.731 7.05135 150.785 7.00832 150.871 7.00832H154.55C154.657 7.00832 154.7 7.05135 154.679 7.1374L150.742 29.8387C150.731 29.8817 150.699 29.9193 150.645 29.9516L150.581 30H146.579C146.515 30 146.461 29.9462 146.418 29.8387L144.724 17.9798L143.046 29.8387C143.035 29.9462 142.981 30 142.885 30ZM160.487 30H156.744C156.658 30 156.615 29.9462 156.615 29.8387L156.647 7.1374C156.647 7.05135 156.701 7.00832 156.809 7.00832H160.487C160.595 7.00832 160.649 7.05135 160.649 7.1374L160.616 16.1243H165.57V7.1374C165.57 7.05135 165.613 7.00832 165.699 7.00832H169.377C169.485 7.00832 169.539 7.05135 169.539 7.1374L169.603 29.8387C169.603 29.9462 169.549 30 169.442 30H165.731C165.623 30 165.57 29.9462 165.57 29.8387V20.1257H160.616V29.8387C160.616 29.9462 160.573 30 160.487 30ZM171.184 29.8387L175.283 7.1374C175.304 7.05135 175.358 7.00832 175.444 7.00832H180.236C180.322 7.00832 180.376 7.05135 180.397 7.1374L184.334 29.8387C184.345 29.9462 184.302 30 184.205 30H180.542C180.435 30 180.376 29.9462 180.365 29.8387L180.01 27.4185H175.508L175.154 29.8387C175.143 29.9462 175.089 30 174.992 30H171.314C171.227 30 171.184 29.9462 171.184 29.8387ZM177.993 14.6077L177.8 13.3815L177.654 14.6077L176.17 23.885H179.348L177.993 14.6077Z" fill="#00FF67"/>
<path d="M85.5475 12.1071C85.6178 11.5277 85.6553 10.9677 85.6553 10.4504C85.6553 6.876 83.8648 6.2749 81.8278 6.2749C79.7907 6.2749 78.209 6.876 78.209 10.4504C78.209 10.9186 78.2362 11.4217 78.2879 11.9426C77.8705 11.6288 77.4546 11.3472 77.053 11.1096C73.9768 9.28928 72.5477 10.5241 71.5103 12.2772C70.4729 14.0304 70.1848 15.6977 73.2609 17.518C73.7519 17.8086 74.3081 18.0908 74.9003 18.353C74.2929 18.6105 73.724 18.8921 73.2253 19.1871C70.1484 21.0063 70.5423 22.8535 71.5791 24.607C72.6159 26.3605 73.9384 27.416 77.0152 25.5967C77.4539 25.3373 77.912 25.0292 78.3718 24.6864C78.3108 25.2567 78.2786 25.8078 78.2786 26.3174C78.2786 29.8918 79.8603 30.4929 81.8974 30.4929C83.9344 30.4929 85.7249 29.8918 85.7249 26.3174C85.7249 25.8508 85.6944 25.3495 85.6368 24.8305C86.0588 25.1403 86.4779 25.4199 86.8809 25.6583C89.9571 27.4786 91.2799 26.4234 92.3173 24.6703C93.3546 22.9172 93.7491 21.0702 90.673 19.2499C90.1842 18.9606 89.6281 18.6841 89.0342 18.4305C89.6395 18.1643 90.208 17.8768 90.7086 17.5808C93.7855 15.7615 93.4978 14.0941 92.461 12.3406C91.4242 10.5871 89.9955 9.35182 86.9187 11.1711C86.4734 11.4344 86.0104 11.7517 85.5475 12.1071Z" fill="#FF9B38"/>
</svg>
