<svg width="395" height="52" viewBox="0 0 395 52" fill="none" xmlns="http://www.w3.org/2000/svg">
<rect width="395" height="52" rx="26" fill="#F4F4F5"/>
<path d="M29.9375 23.0938C29.9375 25.3906 31.1094 27.8438 33.5 28.8438L32.4219 30.4062C30.7422 29.6953 29.5859 28.2812 28.9531 26.5469C28.3047 28.4297 27.125 29.9922 25.4531 30.7656L24.3125 29.1875C26.6719 28.1406 27.8906 25.5 27.8906 23.0938V22.2188H24.875V20.5938H32.9062V22.2188H29.9375V23.0938ZM36.3281 19.2188V33.4375H34.3125V19.2188H36.3281ZM50.2969 19.2344V29.9688H48.2969V28.8438H45.5781V27.4844H48.2969V19.2344H50.2969ZM50.6094 31.5938V33.1875H40.0156V28.9375H42V27.0469C40.7266 27.1016 39.5156 27.1094 38.4375 27.1094L38.2031 25.5312C40.8125 25.5156 44.3281 25.4844 47.3281 25.1094L47.4375 26.5312C46.3125 26.7188 45.1484 26.8516 44 26.9375V29.6406H42V31.5938H50.6094ZM42.8281 19.7188C44.8906 19.7031 46.375 20.75 46.375 22.2656C46.375 23.7812 44.8906 24.7656 42.8281 24.7656C40.7188 24.7656 39.25 23.7812 39.25 22.2656C39.25 20.75 40.7031 19.7031 42.8281 19.7188ZM42.8281 21.1719C41.8125 21.1719 41.125 21.5625 41.1406 22.2656C41.125 22.9531 41.8125 23.3281 42.8281 23.3281C43.7812 23.3281 44.4688 22.9531 44.4844 22.2656C44.4688 21.5625 43.7812 21.1719 42.8281 21.1719ZM67.4375 20.4062V21.6719C67.4375 23.3906 67.4531 25.3906 66.7969 28.4688L64.8438 28.2656C65.0781 27.1875 65.2188 26.2266 65.3125 25.3594L57.0625 25.8281L56.7812 24.125L65.4375 23.8438C65.4688 23.1719 65.4766 22.5625 65.4844 22H57.25V20.4062H67.4375ZM68.7344 30.1719V31.7969H55.7656V30.1719H60.4062V26.7344H62.3906V30.1719H68.7344ZM81.1875 25.7969V27.3906H71.125V20.4062H81.0781V22.0156H73.0938V25.7969H81.1875ZM82.6094 30.0625V31.7031H69.5938V30.0625H82.6094ZM91.0781 19.9844C92.2109 19.9844 93.2031 20.3984 93.8906 21.0938H97.1094V19.2188H99.0938V27.5469H97.1094V25.8438H93.875C93.1875 26.5312 92.2031 26.9453 91.0781 26.9375C88.9219 26.9531 87.2812 25.4688 87.2969 23.4688C87.2812 21.4375 88.9219 19.9844 91.0781 19.9844ZM91.0781 21.6875C89.9688 21.6875 89.1719 22.3438 89.1875 23.4688C89.1719 24.5625 89.9688 25.2656 91.0781 25.25C92.1562 25.2656 92.9375 24.5625 92.9375 23.4688C92.9375 22.3438 92.1562 21.6875 91.0781 21.6875ZM94.2344 27.8438C97.25 27.8438 99.125 28.875 99.1406 30.6406C99.125 32.4062 97.25 33.4375 94.2344 33.4375C91.2344 33.4375 89.3438 32.4062 89.3438 30.6406C89.3438 28.875 91.2344 27.8438 94.2344 27.8438ZM94.2344 29.3594C92.3438 29.3594 91.2969 29.7812 91.2969 30.6406C91.2969 31.4688 92.3438 31.8906 94.2344 31.8906C96.1562 31.8906 97.1875 31.4688 97.1875 30.6406C97.1875 29.7812 96.1562 29.3594 94.2344 29.3594ZM94.75 22.6719C94.7969 22.9219 94.8281 23.1953 94.8281 23.4688C94.8281 23.7422 94.7969 24 94.75 24.25H97.1094V22.6719H94.75ZM112.922 28.2656V33.4375H110.938V29.8281H103.156V28.2656H112.922ZM112.922 19.2188V27.625H110.938V25.8281H107.75C107.07 26.5625 106.062 27 104.906 27C102.75 27 101.109 25.5156 101.125 23.4531C101.109 21.4375 102.75 19.9688 104.906 19.9844C106.062 19.9766 107.07 20.4062 107.75 21.125H110.938V19.2188H112.922ZM104.906 21.6562C103.797 21.6562 103 22.3438 103.016 23.4531C103 24.625 103.797 25.2969 104.906 25.2969C105.953 25.2969 106.766 24.625 106.766 23.4531C106.766 22.3438 105.953 21.6562 104.906 21.6562ZM108.578 24.2344H110.938V22.7344H108.594C108.633 22.9609 108.656 23.2031 108.656 23.4531C108.656 23.7266 108.625 23.9844 108.578 24.2344ZM126.672 19.2188V26.8594H124.672V19.2188H126.672ZM119.125 27.4844V28.8125H124.688V27.4844H126.672V33.2812H117.156V27.4844H119.125ZM119.125 31.6719H124.688V30.3594H119.125V31.6719ZM118.875 19.8125C121.094 19.7969 122.766 21.1875 122.766 23.1875C122.766 25.125 121.094 26.5156 118.875 26.5156C116.656 26.5156 114.984 25.125 114.984 23.1875C114.984 21.1875 116.656 19.7969 118.875 19.8125ZM118.875 21.4688C117.734 21.4688 116.922 22.1094 116.938 23.1875C116.922 24.25 117.734 24.875 118.875 24.875C119.984 24.875 120.797 24.25 120.797 23.1875C120.797 22.1094 119.984 21.4688 118.875 21.4688ZM140.547 19.2188V33.4375H138.562V19.2188H140.547ZM131.328 20.5781V28.2188C133.25 28.1953 135.312 28.0156 137.406 27.6094L137.656 29.25C135.156 29.7656 132.812 29.9375 130.609 29.9219H129.359V20.5781H131.328ZM153.641 19.2188V24.5H155.734V26.125H153.641V33.4688H151.641V19.2188H153.641ZM149.656 20.5312V22.1406H144.969V28.375C147.031 28.3516 148.734 28.2578 150.625 27.9219L150.844 29.5938C148.641 29.9688 146.703 30.0312 144.188 30.0156H142.984V20.5312H149.656ZM158.094 32.1406C157.359 32.1406 156.766 31.5469 156.781 30.8281C156.766 30.1094 157.359 29.5312 158.094 29.5312C158.781 29.5312 159.391 30.1094 159.391 30.8281C159.391 31.5469 158.781 32.1406 158.094 32.1406Z" fill="#737373"/>
<path d="M354 32C353.45 32 352.979 31.8042 352.588 31.4125C352.196 31.0208 352 30.55 352 30V18C352 17.45 352.196 16.9792 352.588 16.5875C352.979 16.1958 353.45 16 354 16H363C363.55 16 364.021 16.1958 364.413 16.5875C364.804 16.9792 365 17.45 365 18V30C365 30.55 364.804 31.0208 364.413 31.4125C364.021 31.8042 363.55 32 363 32H354ZM354 30H363V18H354V30ZM350 36C349.45 36 348.979 35.8042 348.588 35.4125C348.196 35.0208 348 34.55 348 34V20H350V34H361V36H350Z" fill="#737373"/>
</svg>
