<svg width="43" height="43" viewBox="0 0 43 43" fill="none" xmlns="http://www.w3.org/2000/svg">
<rect width="42.3529" height="42.3529" rx="9.41177" fill="white"/>
<path d="M21.1761 10.5898C25.4057 10.5898 27.5211 10.5898 29.0443 11.5977C29.7244 12.0477 30.3072 12.6304 30.7572 13.3105C31.7649 14.8337 31.765 16.9486 31.765 21.1777C31.765 25.4073 31.7651 27.5227 30.7572 29.0459C30.3071 29.7261 29.7245 30.3087 29.0443 30.7588C27.5211 31.7667 25.4057 31.7666 21.1761 31.7666C16.947 31.7666 14.8321 31.7665 13.309 30.7588C12.6288 30.3088 12.0461 29.726 11.5961 29.0459C10.5882 27.5227 10.5883 25.4073 10.5883 21.1777C10.5883 16.9484 10.5883 14.8337 11.5961 13.3105C12.0461 12.6304 12.6288 12.0477 13.309 11.5977C14.8321 10.5899 16.9469 10.5898 21.1761 10.5898ZM21.1771 15.6963C18.1497 15.6963 15.6947 18.1513 15.6947 21.1787C15.6949 24.206 18.1498 26.6602 21.1771 26.6602C24.2043 26.6599 26.6584 24.2059 26.6586 21.1787C26.6586 18.1514 24.2044 15.6965 21.1771 15.6963ZM21.1771 17.5518C23.1801 17.552 24.8041 19.1757 24.8041 21.1787C24.8039 23.1816 23.18 24.8055 21.1771 24.8057C19.174 24.8057 17.5494 23.1817 17.5492 21.1787C17.5492 19.1755 19.174 17.5518 21.1771 17.5518ZM26.8754 14.1338C26.1642 14.1338 25.5875 14.7098 25.5873 15.4209C25.5873 16.1323 26.164 16.709 26.8754 16.709C27.5865 16.7087 28.1625 16.1321 28.1625 15.4209C28.1622 14.7099 27.5864 14.134 26.8754 14.1338Z" fill="#2A2A2A"/>
</svg>
