<svg width="43" height="43" viewBox="0 0 43 43" fill="none" xmlns="http://www.w3.org/2000/svg">
<rect width="42.3529" height="42.3529" rx="9.41177" fill="white"/>
<path d="M21.4707 12C27.2707 12 31.9717 15.664 31.9717 20.185C31.9717 24.705 27.2707 28.369 21.4717 28.369C20.8943 28.368 20.3175 28.3312 19.7447 28.259L15.3367 31.142C14.8357 31.407 14.6587 31.378 14.8647 30.729L15.7567 27.051C12.8767 25.591 10.9717 23.061 10.9717 20.185C10.9717 15.665 15.6717 12 21.4717 12M27.3797 20.06L28.8497 18.636C28.9345 18.5479 28.9818 18.4303 28.9817 18.308C28.9815 18.1858 28.9339 18.0683 28.8489 17.9804C28.7639 17.8925 28.648 17.8411 28.5258 17.8369C28.4036 17.8327 28.2845 17.8761 28.1937 17.958L26.2657 19.824V18.282C26.2657 18.1568 26.216 18.0368 26.1274 17.9482C26.0389 17.8597 25.9189 17.81 25.7937 17.81C25.6685 17.81 25.5484 17.8597 25.4599 17.9482C25.3714 18.0368 25.3217 18.1568 25.3217 18.282V20.839C25.305 20.9121 25.305 20.9879 25.3217 21.061V22.5C25.3217 22.6252 25.3714 22.7452 25.4599 22.8338C25.5484 22.9223 25.6685 22.972 25.7937 22.972C25.9189 22.972 26.0389 22.9223 26.1274 22.8338C26.216 22.7452 26.2657 22.6252 26.2657 22.5V21.137L26.6927 20.724L28.1207 22.757C28.1563 22.8078 28.2016 22.851 28.254 22.8842C28.3064 22.9175 28.3648 22.9401 28.4259 22.9508C28.487 22.9615 28.5496 22.96 28.6101 22.9465C28.6706 22.933 28.7279 22.9077 28.7787 22.872C28.8294 22.8363 28.8727 22.791 28.9059 22.7387C28.9392 22.6863 28.9618 22.6279 28.9725 22.5668C28.9831 22.5057 28.9817 22.4431 28.9682 22.3826C28.9546 22.322 28.9293 22.2648 28.8937 22.214L27.3797 20.06ZM24.4217 21.984H22.9617V18.297C22.9561 18.1757 22.904 18.0612 22.8162 17.9774C22.7284 17.8935 22.6116 17.8467 22.4902 17.8467C22.3688 17.8467 22.252 17.8935 22.1642 17.9774C22.0764 18.0612 22.0243 18.1757 22.0187 18.297V22.456C22.0187 22.716 22.2287 22.928 22.4897 22.928H24.4217C24.5469 22.928 24.6669 22.8783 24.7554 22.7898C24.844 22.7012 24.8937 22.5812 24.8937 22.456C24.8937 22.3308 24.844 22.2108 24.7554 22.1222C24.6669 22.0337 24.5469 21.984 24.4217 21.984ZM18.5647 20.893L19.2607 19.185L19.8987 20.892L18.5647 20.893ZM21.0877 21.38L21.0897 21.364C21.0893 21.2451 21.044 21.1308 20.9627 21.044L19.9167 18.244C19.8728 18.1106 19.7893 17.9937 19.6773 17.909C19.5652 17.8243 19.43 17.7758 19.2897 17.77C19.1484 17.7699 19.0105 17.8126 18.894 17.8924C18.7774 17.9721 18.6877 18.0853 18.6367 18.217L16.9747 22.292C16.9273 22.4079 16.928 22.5379 16.9765 22.6533C17.0249 22.7687 17.1173 22.8602 17.2332 22.9075C17.3491 22.9548 17.479 22.9542 17.5945 22.9057C17.7099 22.8572 17.8013 22.7649 17.8487 22.649L18.1807 21.836H20.2507L20.5487 22.636C20.569 22.6958 20.6011 22.7509 20.6431 22.7981C20.6852 22.8452 20.7362 22.8835 20.7933 22.9105C20.8503 22.9376 20.9123 22.9529 20.9754 22.9557C21.0385 22.9584 21.1015 22.9484 21.1606 22.9263C21.2198 22.9042 21.2739 22.8704 21.3198 22.8271C21.3657 22.7837 21.4024 22.7315 21.4278 22.6737C21.4532 22.6158 21.4667 22.5535 21.4675 22.4903C21.4684 22.4272 21.4565 22.3645 21.4327 22.306L21.0877 21.38ZM17.7647 18.302C17.7649 18.24 17.7529 18.1786 17.7294 18.1213C17.7058 18.064 17.6712 18.0119 17.6274 17.968C17.5836 17.9241 17.5316 17.8894 17.4743 17.8657C17.417 17.842 17.3557 17.8299 17.2937 17.83H14.0487C13.9235 17.83 13.8034 17.8797 13.7149 17.9682C13.6264 18.0568 13.5767 18.1768 13.5767 18.302C13.5767 18.4272 13.6264 18.5472 13.7149 18.6358C13.8034 18.7243 13.9235 18.774 14.0487 18.774H15.2087V22.51C15.2087 22.6352 15.2584 22.7552 15.3469 22.8438C15.4354 22.9323 15.5555 22.982 15.6807 22.982C15.8059 22.982 15.9259 22.9323 16.0144 22.8438C16.103 22.7552 16.1527 22.6352 16.1527 22.51V18.774H17.2927C17.3547 18.7743 17.4162 18.7622 17.4736 18.7386C17.531 18.715 17.5831 18.6802 17.627 18.6363C17.6709 18.5925 17.7057 18.5403 17.7293 18.4829C17.7529 18.4256 17.7649 18.3641 17.7647 18.302Z" fill="#2A2A2A"/>
</svg>
