<svg width="214" height="46" viewBox="0 0 214 46" fill="none" xmlns="http://www.w3.org/2000/svg">
<path d="M13.9346 35H1.65137C1.55241 35 1.50293 34.9382 1.50293 34.8145L1.54004 8.74512C1.54004 8.62142 1.60189 8.55957 1.72559 8.55957H5.95605C6.07975 8.55957 6.1416 8.62142 6.1416 8.74512L6.10449 30.3242H13.9346C14.0583 30.3242 14.1201 30.3861 14.1201 30.5098V34.8145C14.1201 34.9382 14.0583 35 13.9346 35ZM21.0967 35H16.792C16.6683 35 16.6064 34.9382 16.6064 34.8145L16.6436 8.70801C16.6436 8.60905 16.693 8.55957 16.792 8.55957H21.0596C21.1585 8.55957 21.208 8.60905 21.208 8.70801L21.2451 34.8145C21.2451 34.9382 21.1956 35 21.0967 35ZM29.0381 35H24.7334C24.6344 35 24.585 34.9382 24.585 34.8145L24.6592 8.74512C24.6592 8.62142 24.7087 8.55957 24.8076 8.55957H29.0752C29.1742 8.55957 29.2236 8.62142 29.2236 8.74512V17.7441L35.1797 8.70801C35.2786 8.60905 35.3714 8.55957 35.458 8.55957H39.8184C39.9297 8.55957 39.9544 8.60905 39.8926 8.70801L33.3242 19.1914L40.6904 34.8516C40.7523 34.9505 40.6904 35 40.5049 35H35.8662C35.7425 35 35.6683 34.9505 35.6436 34.8516L30.5039 23.6816L29.1865 25.7598V34.8145C29.1865 34.9382 29.137 35 29.0381 35ZM54.8291 35H42.5459C42.4469 35 42.3975 34.9382 42.3975 34.8145L42.4346 8.70801C42.4346 8.60905 42.484 8.55957 42.583 8.55957H54.792C54.891 8.55957 54.9404 8.62142 54.9404 8.74512V12.9941C54.9404 13.0931 54.891 13.1426 54.792 13.1426H46.999V19.0801H54.792C54.891 19.0801 54.9404 19.1296 54.9404 19.2285L54.9775 23.5332C54.9775 23.6322 54.9281 23.6816 54.8291 23.6816H46.999V30.3242H54.8291C54.9281 30.3242 54.9775 30.3861 54.9775 30.5098V34.8516C54.9775 34.9505 54.9281 35 54.8291 35ZM70.7861 35H58.5029C58.404 35 58.3545 34.9382 58.3545 34.8145L58.3916 8.74512C58.3916 8.62142 58.4535 8.55957 58.5771 8.55957H62.8076C62.9313 8.55957 62.9932 8.62142 62.9932 8.74512L62.9561 30.3242H70.7861C70.9098 30.3242 70.9717 30.3861 70.9717 30.5098V34.8145C70.9717 34.9382 70.9098 35 70.7861 35ZM77.9482 35H73.6436C73.5199 35 73.458 34.9382 73.458 34.8145L73.4951 8.70801C73.4951 8.60905 73.5446 8.55957 73.6436 8.55957H77.9111C78.0101 8.55957 78.0596 8.60905 78.0596 8.70801L78.0967 34.8145C78.0967 34.9382 78.0472 35 77.9482 35ZM115.188 35H111.384C111.186 35 111.087 34.9134 111.087 34.7402L111.05 8.85645C111.05 8.65853 111.149 8.55957 111.347 8.55957H114.779L121.199 23.5332L121.014 8.85645C121.014 8.65853 121.125 8.55957 121.348 8.55957H125.114C125.263 8.55957 125.337 8.65853 125.337 8.85645L125.374 34.7773C125.374 34.9258 125.312 35 125.188 35H121.849L115.262 21.0098L115.54 34.7031C115.54 34.901 115.423 35 115.188 35Z" fill="white"/>
<path d="M153.463 35H141.18C141.081 35 141.031 34.9382 141.031 34.8145L141.068 8.70801C141.068 8.60905 141.118 8.55957 141.217 8.55957H153.426C153.525 8.55957 153.574 8.62142 153.574 8.74512V12.9941C153.574 13.0931 153.525 13.1426 153.426 13.1426H145.633V19.0801H153.426C153.525 19.0801 153.574 19.1296 153.574 19.2285L153.611 23.5332C153.611 23.6322 153.562 23.6816 153.463 23.6816H145.633V30.3242H153.463C153.562 30.3242 153.611 30.3861 153.611 30.5098V34.8516C153.611 34.9505 153.562 35 153.463 35ZM164.317 35H159.716C159.604 35 159.543 34.9382 159.53 34.8145L155.04 8.70801C155.015 8.60905 155.052 8.55957 155.151 8.55957H159.419C159.518 8.55957 159.58 8.60905 159.604 8.70801L162.035 25.8711L164.54 8.70801C164.565 8.60905 164.639 8.55957 164.763 8.55957H168.195C168.294 8.55957 168.356 8.60905 168.381 8.70801L170.849 25.8711L173.316 8.70801C173.341 8.60905 173.403 8.55957 173.502 8.55957H177.732C177.856 8.55957 177.906 8.60905 177.881 8.70801L173.354 34.8145C173.341 34.8639 173.304 34.9072 173.242 34.9443L173.168 35H168.566C168.492 35 168.43 34.9382 168.381 34.8145L166.433 21.1768L164.503 34.8145C164.491 34.9382 164.429 35 164.317 35ZM184.561 35H180.256C180.157 35 180.107 34.9382 180.107 34.8145L180.145 8.70801C180.145 8.60905 180.206 8.55957 180.33 8.55957H184.561C184.684 8.55957 184.746 8.60905 184.746 8.70801L184.709 19.043H190.405V8.70801C190.405 8.60905 190.455 8.55957 190.554 8.55957H194.784C194.908 8.55957 194.97 8.60905 194.97 8.70801L195.044 34.8145C195.044 34.9382 194.982 35 194.858 35H190.591C190.467 35 190.405 34.9382 190.405 34.8145V23.6445H184.709V34.8145C184.709 34.9382 184.66 35 184.561 35ZM196.862 34.8145L201.575 8.70801C201.6 8.60905 201.662 8.55957 201.761 8.55957H207.271C207.37 8.55957 207.432 8.60905 207.457 8.70801L211.984 34.8145C211.997 34.9382 211.947 35 211.836 35H207.624C207.5 35 207.432 34.9382 207.42 34.8145L207.012 32.0312H201.835L201.427 34.8145C201.414 34.9382 201.353 35 201.241 35H197.011C196.912 35 196.862 34.9382 196.862 34.8145ZM204.692 17.2988L204.47 15.8887L204.303 17.2988L202.596 27.9678H206.251L204.692 17.2988Z" fill="#00FF67"/>
<path d="M99.4866 14.3614C99.5702 13.6725 99.6148 13.0068 99.6148 12.3918C99.6148 8.14216 97.4861 7.42751 95.0643 7.42751C92.6424 7.42751 90.7619 8.14215 90.7619 12.3918C90.7619 12.9484 90.7942 13.5465 90.8557 14.1658C90.3595 13.7927 89.8651 13.458 89.3876 13.1754C85.7303 11.0113 84.0312 12.4794 82.7979 14.5636C81.5645 16.6479 81.2219 18.6303 84.8792 20.7944C85.4629 21.1398 86.1242 21.4754 86.8282 21.7871C86.1061 22.0932 85.4298 22.4281 84.8368 22.7787C81.1787 24.9416 81.647 27.1378 82.8797 29.2224C84.1124 31.3071 85.6846 32.5621 89.3427 30.3992C89.8642 30.0908 90.4088 29.7244 90.9555 29.3168C90.883 29.9949 90.8447 30.65 90.8447 31.256C90.8447 35.5056 92.7252 36.2202 95.147 36.2202C97.5689 36.2202 99.6976 35.5056 99.6976 31.256C99.6976 30.7012 99.6613 30.1052 99.5929 29.4882C100.095 29.8565 100.593 30.1889 101.072 30.4723C104.729 32.6365 106.302 31.382 107.535 29.2977C108.769 27.2135 109.238 25.0175 105.58 22.8534C104.999 22.5095 104.338 22.1807 103.632 21.8793C104.352 21.5628 105.027 21.221 105.623 20.869C109.281 18.7061 108.939 16.7237 107.706 14.639C106.473 12.5543 104.775 11.0856 101.117 13.2486C100.587 13.5616 100.037 13.9388 99.4866 14.3614Z" fill="#FF9B38"/>
</svg>
