<svg width="179" height="39" viewBox="0 0 179 39" fill="none" xmlns="http://www.w3.org/2000/svg">
<path d="M11.7189 29H1.38879C1.30556 29 1.26395 28.948 1.26395 28.844L1.29516 6.91985C1.29516 6.81582 1.34718 6.7638 1.4512 6.7638H5.009C5.11302 6.7638 5.16504 6.81582 5.16504 6.91985L5.13383 25.0677H11.7189C11.8229 25.0677 11.8749 25.1197 11.8749 25.2237V28.844C11.8749 28.948 11.8229 29 11.7189 29ZM17.7421 29H14.1219C14.0179 29 13.9659 28.948 13.9659 28.844L13.9971 6.88864C13.9971 6.80541 14.0387 6.7638 14.1219 6.7638H17.7109C17.7942 6.7638 17.8358 6.80541 17.8358 6.88864L17.867 28.844C17.867 28.948 17.8254 29 17.7421 29ZM24.4208 29H20.8006C20.7174 29 20.6758 28.948 20.6758 28.844L20.7382 6.91985C20.7382 6.81582 20.7798 6.7638 20.863 6.7638H24.452C24.5352 6.7638 24.5768 6.81582 24.5768 6.91985V14.488L29.5858 6.88864C29.6691 6.80541 29.7471 6.7638 29.8199 6.7638H33.4869C33.5806 6.7638 33.6014 6.80541 33.5493 6.88864L28.0254 15.7051L34.2203 28.8752C34.2724 28.9584 34.2203 29 34.0643 29H30.1632C30.0592 29 29.9968 28.9584 29.976 28.8752L25.6535 19.4813L24.5456 21.229V28.844C24.5456 28.948 24.504 29 24.4208 29ZM46.1108 29H35.7808C35.6975 29 35.6559 28.948 35.6559 28.844L35.6871 6.88864C35.6871 6.80541 35.7288 6.7638 35.812 6.7638H46.0796C46.1629 6.7638 46.2045 6.81582 46.2045 6.91985V10.4932C46.2045 10.5765 46.1629 10.6181 46.0796 10.6181H39.5258V15.6115H46.0796C46.1629 15.6115 46.2045 15.6531 46.2045 15.7363L46.2357 19.3565C46.2357 19.4397 46.1941 19.4813 46.1108 19.4813H39.5258V25.0677H46.1108C46.1941 25.0677 46.2357 25.1197 46.2357 25.2237V28.8752C46.2357 28.9584 46.1941 29 46.1108 29ZM59.5306 29H49.2005C49.1173 29 49.0757 28.948 49.0757 28.844L49.1069 6.91985C49.1069 6.81582 49.1589 6.7638 49.2629 6.7638H52.8207C52.9248 6.7638 52.9768 6.81582 52.9768 6.91985L52.9456 25.0677H59.5306C59.6346 25.0677 59.6866 25.1197 59.6866 25.2237V28.844C59.6866 28.948 59.6346 29 59.5306 29ZM65.5539 29H61.9337C61.8296 29 61.7776 28.948 61.7776 28.844L61.8088 6.88864C61.8088 6.80541 61.8504 6.7638 61.9337 6.7638H65.5227C65.6059 6.7638 65.6475 6.80541 65.6475 6.88864L65.6787 28.844C65.6787 28.948 65.6371 29 65.5539 29ZM96.8718 29H93.6729C93.5065 29 93.4232 28.9272 93.4232 28.7815L93.392 7.01347C93.392 6.84703 93.4753 6.7638 93.6417 6.7638H96.5285L101.928 19.3565L101.772 7.01347C101.772 6.84703 101.865 6.7638 102.052 6.7638H105.22C105.345 6.7638 105.407 6.84703 105.407 7.01347L105.439 28.8127C105.439 28.9376 105.387 29 105.283 29H102.474L96.9342 17.2343L97.1683 28.7503C97.1683 28.9168 97.0695 29 96.8718 29Z" fill="white"/>
<path d="M128.719 29H118.389C118.306 29 118.264 28.948 118.264 28.844L118.295 6.88864C118.295 6.80541 118.337 6.7638 118.42 6.7638H128.688C128.771 6.7638 128.812 6.81582 128.812 6.91985V10.4932C128.812 10.5765 128.771 10.6181 128.688 10.6181H122.134V15.6115H128.688C128.771 15.6115 128.812 15.6531 128.812 15.7363L128.844 19.3565C128.844 19.4397 128.802 19.4813 128.719 19.4813H122.134V25.0677H128.719C128.802 25.0677 128.844 25.1197 128.844 25.2237V28.8752C128.844 28.9584 128.802 29 128.719 29ZM137.847 29H133.978C133.884 29 133.832 28.948 133.821 28.844L130.045 6.88864C130.024 6.80541 130.056 6.7638 130.139 6.7638H133.728C133.811 6.7638 133.863 6.80541 133.884 6.88864L135.928 21.3227L138.035 6.88864C138.055 6.80541 138.118 6.7638 138.222 6.7638H141.109C141.192 6.7638 141.244 6.80541 141.265 6.88864L143.34 21.3227L145.416 6.88864C145.436 6.80541 145.488 6.7638 145.572 6.7638H149.129C149.233 6.7638 149.275 6.80541 149.254 6.88864L145.447 28.844C145.436 28.8856 145.405 28.922 145.353 28.9532L145.291 29H141.421C141.358 29 141.306 28.948 141.265 28.844L139.626 17.3748L138.003 28.844C137.993 28.948 137.941 29 137.847 29ZM154.872 29H151.252C151.168 29 151.127 28.948 151.127 28.844L151.158 6.88864C151.158 6.80541 151.21 6.7638 151.314 6.7638H154.872C154.976 6.7638 155.028 6.80541 155.028 6.88864L154.997 15.5803H159.787V6.88864C159.787 6.80541 159.829 6.7638 159.912 6.7638H163.47C163.574 6.7638 163.626 6.80541 163.626 6.88864L163.688 28.844C163.688 28.948 163.636 29 163.532 29H159.943C159.839 29 159.787 28.948 159.787 28.844V19.4501H154.997V28.844C154.997 28.948 154.955 29 154.872 29ZM165.217 28.844L169.181 6.88864C169.202 6.80541 169.254 6.7638 169.337 6.7638H173.971C174.055 6.7638 174.107 6.80541 174.128 6.88864L177.935 28.844C177.945 28.948 177.904 29 177.81 29H174.268C174.164 29 174.107 28.948 174.096 28.844L173.753 26.5033H169.399L169.056 28.844C169.046 28.948 168.994 29 168.9 29H165.342C165.259 29 165.217 28.948 165.217 28.844ZM171.802 14.1135L171.615 12.9275L171.475 14.1135L170.039 23.086H173.113L171.802 14.1135Z" fill="#00FF67"/>
<path d="M83.2836 12.2675C83.3526 11.6994 83.3893 11.1504 83.3893 10.6433C83.3893 7.13882 81.6339 6.54948 79.6367 6.54948C77.6395 6.54948 76.0887 7.13882 76.0887 10.6433C76.0887 11.1023 76.1154 11.5956 76.1661 12.1063C75.7569 11.7985 75.3491 11.5225 74.9554 11.2895C71.9394 9.50486 70.5383 10.7155 69.5212 12.4343C68.5041 14.1531 68.2216 15.7879 71.2376 17.5725C71.7189 17.8574 72.2642 18.1341 72.8448 18.3911C72.2493 18.6436 71.6916 18.9197 71.2026 19.2089C68.1859 20.9926 68.5721 22.8036 69.5886 24.5227C70.6052 26.2419 71.9017 27.2768 74.9184 25.4931C75.3485 25.2388 75.7976 24.9367 76.2484 24.6006C76.1886 25.1597 76.157 25.7 76.157 26.1997C76.157 29.7042 77.7077 30.2935 79.7049 30.2935C81.7021 30.2935 83.4576 29.7042 83.4576 26.1997C83.4576 25.7422 83.4277 25.2508 83.3712 24.7419C83.7849 25.0456 84.1958 25.3197 84.5909 25.5535C87.6069 27.3381 88.9038 26.3037 89.9209 24.5848C90.9379 22.866 91.3247 21.0551 88.3088 19.2705C87.8296 18.9869 87.2843 18.7158 86.7021 18.4672C87.2956 18.2062 87.8529 17.9243 88.3437 17.6341C91.3604 15.8504 91.0783 14.2156 90.0618 12.4964C89.0453 10.7773 87.6446 9.56618 84.6279 11.3498C84.1914 11.608 83.7375 11.919 83.2836 12.2675Z" fill="#FF9B38"/>
</svg>
