<svg width="359" height="116" viewBox="0 0 359 116" fill="none" xmlns="http://www.w3.org/2000/svg">
<path d="M23.4688 78H2.78125C2.61458 78 2.53125 77.8958 2.53125 77.6875L2.59375 33.7812C2.59375 33.5729 2.69792 33.4688 2.90625 33.4688H10.0312C10.2396 33.4688 10.3438 33.5729 10.3438 33.7812L10.2812 70.125H23.4688C23.6771 70.125 23.7812 70.2292 23.7812 70.4375V77.6875C23.7812 77.8958 23.6771 78 23.4688 78ZM35.5312 78H28.2812C28.0729 78 27.9688 77.8958 27.9688 77.6875L28.0312 33.7188C28.0312 33.5521 28.1146 33.4688 28.2812 33.4688H35.4688C35.6354 33.4688 35.7188 33.5521 35.7188 33.7188L35.7812 77.6875C35.7812 77.8958 35.6979 78 35.5312 78ZM48.9062 78H41.6562C41.4896 78 41.4062 77.8958 41.4062 77.6875L41.5312 33.7812C41.5312 33.5729 41.6146 33.4688 41.7812 33.4688H48.9688C49.1354 33.4688 49.2188 33.5729 49.2188 33.7812V48.9375L59.25 33.7188C59.4167 33.5521 59.5729 33.4688 59.7188 33.4688H67.0625C67.25 33.4688 67.2917 33.5521 67.1875 33.7188L56.125 51.375L68.5312 77.75C68.6354 77.9167 68.5312 78 68.2188 78H60.4062C60.1979 78 60.0729 77.9167 60.0312 77.75L51.375 58.9375L49.1562 62.4375V77.6875C49.1562 77.8958 49.0729 78 48.9062 78ZM92.3438 78H71.6562C71.4896 78 71.4062 77.8958 71.4062 77.6875L71.4688 33.7188C71.4688 33.5521 71.5521 33.4688 71.7188 33.4688H92.2812C92.4479 33.4688 92.5312 33.5729 92.5312 33.7812V40.9375C92.5312 41.1042 92.4479 41.1875 92.2812 41.1875H79.1562V51.1875H92.2812C92.4479 51.1875 92.5312 51.2708 92.5312 51.4375L92.5938 58.6875C92.5938 58.8542 92.5104 58.9375 92.3438 58.9375H79.1562V70.125H92.3438C92.5104 70.125 92.5938 70.2292 92.5938 70.4375V77.75C92.5938 77.9167 92.5104 78 92.3438 78ZM119.219 78H98.5312C98.3646 78 98.2812 77.8958 98.2812 77.6875L98.3438 33.7812C98.3438 33.5729 98.4479 33.4688 98.6562 33.4688H105.781C105.99 33.4688 106.094 33.5729 106.094 33.7812L106.031 70.125H119.219C119.427 70.125 119.531 70.2292 119.531 70.4375V77.6875C119.531 77.8958 119.427 78 119.219 78ZM131.281 78H124.031C123.823 78 123.719 77.8958 123.719 77.6875L123.781 33.7188C123.781 33.5521 123.865 33.4688 124.031 33.4688H131.219C131.385 33.4688 131.469 33.5521 131.469 33.7188L131.531 77.6875C131.531 77.8958 131.448 78 131.281 78ZM194 78H187.594C187.26 78 187.094 77.8542 187.094 77.5625L187.031 33.9688C187.031 33.6354 187.198 33.4688 187.531 33.4688H193.312L204.125 58.6875L203.812 33.9688C203.812 33.6354 204 33.4688 204.375 33.4688H210.719C210.969 33.4688 211.094 33.6354 211.094 33.9688L211.156 77.625C211.156 77.875 211.052 78 210.844 78H205.219L194.125 54.4375L194.594 77.5C194.594 77.8333 194.396 78 194 78Z" fill="white"/>
<path d="M258.469 78H237.781C237.615 78 237.531 77.8958 237.531 77.6875L237.594 33.7188C237.594 33.5521 237.677 33.4688 237.844 33.4688H258.406C258.573 33.4688 258.656 33.5729 258.656 33.7812V40.9375C258.656 41.1042 258.573 41.1875 258.406 41.1875H245.281V51.1875H258.406C258.573 51.1875 258.656 51.2708 258.656 51.4375L258.719 58.6875C258.719 58.8542 258.635 58.9375 258.469 58.9375H245.281V70.125H258.469C258.635 70.125 258.719 70.2292 258.719 70.4375V77.75C258.719 77.9167 258.635 78 258.469 78ZM276.75 78H269C268.812 78 268.708 77.8958 268.688 77.6875L261.125 33.7188C261.083 33.5521 261.146 33.4688 261.312 33.4688H268.5C268.667 33.4688 268.771 33.5521 268.812 33.7188L272.906 62.625L277.125 33.7188C277.167 33.5521 277.292 33.4688 277.5 33.4688H283.281C283.448 33.4688 283.552 33.5521 283.594 33.7188L287.75 62.625L291.906 33.7188C291.948 33.5521 292.052 33.4688 292.219 33.4688H299.344C299.552 33.4688 299.635 33.5521 299.594 33.7188L291.969 77.6875C291.948 77.7708 291.885 77.8438 291.781 77.9062L291.656 78H283.906C283.781 78 283.677 77.8958 283.594 77.6875L280.312 54.7188L277.062 77.6875C277.042 77.8958 276.938 78 276.75 78ZM310.844 78H303.594C303.427 78 303.344 77.8958 303.344 77.6875L303.406 33.7188C303.406 33.5521 303.51 33.4688 303.719 33.4688H310.844C311.052 33.4688 311.156 33.5521 311.156 33.7188L311.094 51.125H320.688V33.7188C320.688 33.5521 320.771 33.4688 320.938 33.4688H328.062C328.271 33.4688 328.375 33.5521 328.375 33.7188L328.5 77.6875C328.5 77.8958 328.396 78 328.188 78H321C320.792 78 320.688 77.8958 320.688 77.6875V58.875H311.094V77.6875C311.094 77.8958 311.01 78 310.844 78ZM331.562 77.6875L339.5 33.7188C339.542 33.5521 339.646 33.4688 339.812 33.4688H349.094C349.26 33.4688 349.365 33.5521 349.406 33.7188L357.031 77.6875C357.052 77.8958 356.969 78 356.781 78H349.688C349.479 78 349.365 77.8958 349.344 77.6875L348.656 73H339.938L339.25 77.6875C339.229 77.8958 339.125 78 338.938 78H331.812C331.646 78 331.562 77.8958 331.562 77.6875ZM344.75 48.1875L344.375 45.8125L344.094 48.1875L341.219 66.1562H347.375L344.75 48.1875Z" fill="#07F366"/>
<path d="M166.242 42.7696C166.376 41.6618 166.448 40.5912 166.448 39.6022C166.448 32.7684 163.025 31.6192 159.13 31.6192C155.235 31.6192 152.211 32.7684 152.211 39.6022C152.211 40.4973 152.263 41.4592 152.362 42.4551C151.564 41.855 150.769 41.3167 150.001 40.8624C144.12 37.3823 141.388 39.7431 139.405 43.0948C137.421 46.4466 136.87 49.6343 142.751 53.1145C143.69 53.6699 144.753 54.2096 145.886 54.7108C144.724 55.203 143.637 55.7415 142.683 56.3054C136.801 59.7836 137.554 63.3152 139.536 66.6675C141.518 70.0199 144.047 72.038 149.929 68.5598C150.768 68.0639 151.644 67.4747 152.523 66.8193C152.406 67.9097 152.344 68.9633 152.344 69.9377C152.344 76.7715 155.368 77.9207 159.263 77.9207C163.158 77.9207 166.581 76.7715 166.581 69.9377C166.581 69.0456 166.522 68.0872 166.412 67.0949C167.219 67.6872 168.02 68.2217 168.791 68.6775C174.672 72.1577 177.201 70.1404 179.184 66.7886C181.168 63.4369 181.922 59.9056 176.041 56.4255C175.106 55.8725 174.043 55.3438 172.908 54.8591C174.065 54.35 175.152 53.8005 176.109 53.2345C181.992 49.7563 181.442 46.5683 179.459 43.2159C177.477 39.8636 174.746 37.5019 168.863 40.9801C168.012 41.4834 167.127 42.09 166.242 42.7696Z" fill="#FF9B38"/>
</svg>
