<svg width="846" height="281" viewBox="0 0 846 281" fill="none" xmlns="http://www.w3.org/2000/svg">
<path d="M57.4353 190H7.24732C6.84299 190 6.64082 189.747 6.64082 189.242L6.79245 82.7251C6.79245 82.2197 7.04516 81.967 7.55057 81.967H24.8358C25.3413 81.967 25.594 82.2197 25.594 82.7251L25.4424 170.895H57.4353C57.9407 170.895 58.1934 171.148 58.1934 171.653V189.242C58.1934 189.747 57.9407 190 57.4353 190ZM86.6989 190H69.1104C68.605 190 68.3523 189.747 68.3523 189.242L68.5039 82.5735C68.5039 82.1692 68.7061 81.967 69.1104 81.967H86.5473C86.9517 81.967 87.1538 82.1692 87.1538 82.5735L87.3054 189.242C87.3054 189.747 87.1033 190 86.6989 190ZM119.147 190H101.558C101.154 190 100.952 189.747 100.952 189.242L101.255 82.7251C101.255 82.2197 101.457 81.967 101.861 81.967H119.298C119.703 81.967 119.905 82.2197 119.905 82.7251V119.494L144.241 82.5735C144.645 82.1692 145.024 81.967 145.378 81.967H163.194C163.649 81.967 163.75 82.1692 163.497 82.5735L136.659 125.408L166.757 189.393C167.01 189.798 166.757 190 165.999 190H147.046C146.54 190 146.237 189.798 146.136 189.393L125.136 143.754L119.753 152.245V189.242C119.753 189.747 119.551 190 119.147 190ZM224.526 190H174.338C173.934 190 173.732 189.747 173.732 189.242L173.883 82.5735C173.883 82.1692 174.086 81.967 174.49 81.967H224.375C224.779 81.967 224.981 82.2197 224.981 82.7251V100.086C224.981 100.491 224.779 100.693 224.375 100.693H192.533V124.953H224.375C224.779 124.953 224.981 125.155 224.981 125.559L225.133 143.148C225.133 143.552 224.931 143.754 224.526 143.754H192.533V170.895H224.526C224.931 170.895 225.133 171.148 225.133 171.653V189.393C225.133 189.798 224.931 190 224.526 190ZM289.725 190H239.537C239.133 190 238.931 189.747 238.931 189.242L239.082 82.7251C239.082 82.2197 239.335 81.967 239.84 81.967H257.126C257.631 81.967 257.884 82.2197 257.884 82.7251L257.732 170.895H289.725C290.231 170.895 290.483 171.148 290.483 171.653V189.242C290.483 189.747 290.231 190 289.725 190ZM318.989 190H301.4C300.895 190 300.642 189.747 300.642 189.242L300.794 82.5735C300.794 82.1692 300.996 81.967 301.4 81.967H318.837C319.242 81.967 319.444 82.1692 319.444 82.5735L319.595 189.242C319.595 189.747 319.393 190 318.989 190ZM471.145 190H455.603C454.794 190 454.39 189.646 454.39 188.939L454.239 83.18C454.239 82.3714 454.643 81.967 455.452 81.967H469.477L495.708 143.148L494.95 83.18C494.95 82.3714 495.405 81.967 496.315 81.967H511.704C512.311 81.967 512.614 82.3714 512.614 83.18L512.766 189.09C512.766 189.697 512.513 190 512.008 190H498.361L471.448 132.837L472.585 188.787C472.585 189.596 472.105 190 471.145 190Z" fill="#1C1C1C"/>
<path d="M405.12 104.659C405.447 101.966 405.621 99.3633 405.621 96.9589C405.621 80.3451 397.299 77.5512 387.831 77.5512C378.363 77.5512 371.011 80.3451 371.011 96.9589C371.011 99.135 371.137 101.473 371.378 103.895C369.438 102.436 367.505 101.127 365.638 100.023C351.34 91.562 344.698 97.3013 339.876 105.45C335.054 113.598 333.715 121.348 348.013 129.809C350.295 131.159 352.88 132.471 355.632 133.69C352.809 134.886 350.165 136.196 347.847 137.566C333.546 146.022 335.377 154.608 340.196 162.758C345.015 170.908 351.161 175.814 365.463 167.359C367.502 166.153 369.631 164.721 371.768 163.127C371.484 165.778 371.335 168.339 371.335 170.708C371.334 187.322 378.686 190.116 388.155 190.116C397.623 190.116 405.945 187.322 405.945 170.708C405.945 168.539 405.803 166.209 405.536 163.797C407.497 165.237 409.445 166.536 411.318 167.645C425.616 176.105 431.764 171.201 436.586 163.053C441.408 154.904 443.241 146.319 428.943 137.858C426.671 136.514 424.087 135.229 421.326 134.05C424.14 132.813 426.782 131.477 429.109 130.101C443.41 121.645 442.073 113.894 437.254 105.744C432.435 97.5942 425.795 91.8526 411.493 100.309C409.424 101.532 407.272 103.007 405.12 104.659Z" fill="#FF9B38"/>
<path d="M602.63 190H552.442C552.037 190 551.835 189.747 551.835 189.242L551.987 82.5735C551.987 82.1692 552.189 81.967 552.593 81.967H602.478C602.882 81.967 603.084 82.2197 603.084 82.7251V100.086C603.084 100.491 602.882 100.693 602.478 100.693H570.637V124.953H602.478C602.882 124.953 603.084 125.155 603.084 125.559L603.236 143.148C603.236 143.552 603.034 143.754 602.63 143.754H570.637V170.895H602.63C603.034 170.895 603.236 171.148 603.236 171.653V189.393C603.236 189.798 603.034 190 602.63 190ZM646.98 190H628.178C627.724 190 627.471 189.747 627.42 189.242L609.074 82.5735C608.973 82.1692 609.124 81.967 609.528 81.967H626.965C627.37 81.967 627.622 82.1692 627.724 82.5735L637.655 152.7L647.89 82.5735C647.991 82.1692 648.294 81.967 648.799 81.967H662.825C663.229 81.967 663.482 82.1692 663.583 82.5735L673.666 152.7L683.749 82.5735C683.85 82.1692 684.103 81.967 684.507 81.967H701.792C702.298 81.967 702.5 82.1692 702.399 82.5735L683.901 189.242C683.85 189.444 683.699 189.621 683.446 189.773L683.143 190H664.341C664.038 190 663.785 189.747 663.583 189.242L655.623 133.52L647.738 189.242C647.688 189.747 647.435 190 646.98 190ZM729.692 190H712.103C711.699 190 711.496 189.747 711.496 189.242L711.648 82.5735C711.648 82.1692 711.901 81.967 712.406 81.967H729.692C730.197 81.967 730.45 82.1692 730.45 82.5735L730.298 124.801H753.572V82.5735C753.572 82.1692 753.775 81.967 754.179 81.967H771.464C771.97 81.967 772.222 82.1692 772.222 82.5735L772.526 189.242C772.526 189.747 772.273 190 771.768 190H754.331C753.825 190 753.572 189.747 753.572 189.242V143.603H730.298V189.242C730.298 189.747 730.096 190 729.692 190ZM779.955 189.242L799.212 82.5735C799.313 82.1692 799.565 81.967 799.97 81.967H822.486C822.89 81.967 823.143 82.1692 823.244 82.5735L841.743 189.242C841.793 189.747 841.591 190 841.136 190H823.927C823.421 190 823.143 189.747 823.093 189.242L821.425 177.87H800.273L798.605 189.242C798.555 189.747 798.302 190 797.847 190H780.562C780.157 190 779.955 189.747 779.955 189.242ZM811.948 117.675L811.038 111.913L810.356 117.675L803.381 161.267H818.316L811.948 117.675Z" fill="#05DA5B"/>
</svg>
