<svg width="227" height="227" viewBox="0 0 227 227" fill="none" xmlns="http://www.w3.org/2000/svg">
<g opacity="0.5">
<rect x="0.00292969" y="113.14" width="32" height="32" transform="rotate(-45 0.00292969 113.14)" fill="#FF9B38" fill-opacity="0.35"/>
<rect x="45.2585" y="113.14" width="32" height="32" transform="rotate(-45 45.2585 113.14)" fill="#FF9B38" fill-opacity="0.35"/>
<rect x="45.2578" y="67.8823" width="32" height="32" transform="rotate(-45 45.2578 67.8823)" fill="#FF9B38" fill-opacity="0.35"/>
<rect x="45.2578" y="158.398" width="32" height="32" transform="rotate(-45 45.2578 158.398)" fill="#FF9B38" fill-opacity="0.35"/>
<rect x="90.5126" y="113.14" width="32" height="32" transform="rotate(-45 90.5126 113.14)" fill="#FF9B38" fill-opacity="0.35"/>
<rect x="90.512" y="67.8823" width="32" height="32" transform="rotate(-45 90.512 67.8823)" fill="#FF9B38" fill-opacity="0.35"/>
<rect x="135.768" y="67.8823" width="32" height="32" transform="rotate(-45 135.768 67.8823)" fill="#FF9B38" fill-opacity="0.35"/>
<rect x="90.5127" y="22.6323" width="32" height="32" transform="rotate(-45 90.5127 22.6323)" fill="#FF9B38" fill-opacity="0.35"/>
<rect x="90.5139" y="158.398" width="32" height="32" transform="rotate(-45 90.5139 158.398)" fill="#FF9B38" fill-opacity="0.35"/>
<rect x="90.5127" y="203.648" width="32" height="32" transform="rotate(-45 90.5127 203.648)" fill="#FF9B38" fill-opacity="0.35"/>
<rect x="135.768" y="158.398" width="32" height="32" transform="rotate(-45 135.768 158.398)" fill="#FF9B38" fill-opacity="0.35"/>
<rect x="181.022" y="113.14" width="32" height="32" transform="rotate(-45 181.022 113.14)" fill="#FF9B38" fill-opacity="0.35"/>
<rect x="135.768" y="113.14" width="32" height="32" transform="rotate(-45 135.768 113.14)" fill="#FF9B38" fill-opacity="0.35"/>
</g>
</svg>
