<svg xmlns="http://www.w3.org/2000/svg" width="224" height="224" viewBox="0 0 224 224" fill="none">
  <g opacity="0.5">
    <rect x="64" width="31.9997" height="32" fill="#53E58E" fill-opacity="0.45"/>
    <rect x="96.002" y="32" width="31.9997" height="32" fill="#53E58E" fill-opacity="0.45"/>
    <rect x="127.999" width="31.9997" height="32" fill="#53E58E" fill-opacity="0.45"/>
    <rect x="64" y="64" width="31.9997" height="32" fill="#53E58E" fill-opacity="0.45"/>
    <rect x="128.001" y="64" width="31.9997" height="32" fill="#53E58E" fill-opacity="0.45"/>
    <rect x="160" y="32" width="31.9997" height="32" fill="#53E58E" fill-opacity="0.45"/>
    <rect x="191.999" y="64" width="31.9997" height="32" fill="#53E58E" fill-opacity="0.45"/>
    <rect x="191.999" width="31.9997" height="32" fill="#53E58E" fill-opacity="0.45"/>
    <rect x="96.002" y="96.0078" width="31.9997" height="32" fill="#53E58E" fill-opacity="0.45"/>
    <rect x="64" y="128" width="31.9997" height="32" fill="#53E58E" fill-opacity="0.45"/>
    <rect x="128.001" y="128" width="31.9997" height="32" fill="#53E58E" fill-opacity="0.45"/>
    <rect x="192" y="128" width="31.9997" height="32" fill="#53E58E" fill-opacity="0.45"/>
    <rect x="160.001" y="96.0078" width="31.9997" height="32" fill="#53E58E" fill-opacity="0.45"/>
  </g>
  <g opacity="0.3">
    <rect y="64" width="31.9997" height="32" fill="#53E58E" fill-opacity="0.45"/>
    <rect x="32.002" y="96" width="31.9997" height="32" fill="#53E58E" fill-opacity="0.45"/>
    <rect x="63.999" y="64" width="31.9997" height="32" fill="#53E58E" fill-opacity="0.45"/>
    <rect y="128" width="31.9997" height="32" fill="#53E58E" fill-opacity="0.45"/>
    <rect x="64.0015" y="128" width="31.9997" height="32" fill="#53E58E" fill-opacity="0.45"/>
    <rect x="95.9995" y="96" width="31.9997" height="32" fill="#53E58E" fill-opacity="0.45"/>
    <rect x="127.999" y="128" width="31.9997" height="32" fill="#53E58E" fill-opacity="0.45"/>
    <rect x="127.999" y="64" width="31.9997" height="32" fill="#53E58E" fill-opacity="0.45"/>
    <rect x="32.002" y="160.008" width="31.9997" height="32" fill="#53E58E" fill-opacity="0.45"/>
    <rect y="192" width="31.9997" height="32" fill="#53E58E" fill-opacity="0.45"/>
    <rect x="64.0015" y="192" width="31.9997" height="32" fill="#53E58E" fill-opacity="0.45"/>
    <rect x="128" y="192" width="31.9997" height="32" fill="#53E58E" fill-opacity="0.45"/>
    <rect x="96.001" y="160.008" width="31.9997" height="32" fill="#53E58E" fill-opacity="0.45"/>
  </g>
</svg>