<svg xmlns="http://www.w3.org/2000/svg" width="144" height="152" viewBox="0 0 144 152" fill="none">
  <path opacity="0.6" d="M103.272 40.7376C103.738 36.71 103.976 32.8164 103.952 29.218C103.791 4.35283 91.22 0.0905575 76.9484 -0.00134017C62.6769 -0.0932471 51.6225 4.01688 51.7838 28.882C51.8049 32.1389 52.0181 35.64 52.4039 39.2659C49.4658 37.0636 46.5392 35.0863 43.715 33.4152C22.0813 20.6137 12.1244 29.1391 4.93588 41.2877C-2.25317 53.4364 -4.19674 65.0222 17.437 77.8237C20.8897 79.8669 24.799 81.8556 28.9599 83.7059C24.7158 85.4697 20.7433 87.4034 17.2623 89.4326C-4.21196 101.949 -1.36897 114.817 5.974 127.061C13.317 139.306 22.6296 146.709 44.1039 134.192C47.1656 132.407 50.3608 130.284 53.5669 127.92C53.165 131.885 52.9642 135.717 52.9872 139.262C53.1485 164.127 64.257 168.38 78.5286 168.472C92.8001 168.564 105.317 164.463 105.156 139.598C105.135 136.352 104.898 132.864 104.472 129.251C107.442 131.425 110.391 133.388 113.225 135.065C134.858 147.867 144.078 140.586 151.267 128.438C158.456 116.289 161.136 103.458 139.503 90.6566C136.065 88.6224 132.157 86.6737 127.985 84.8832C132.214 83.0584 136.183 81.0844 139.677 79.0476C161.152 66.5308 159.061 54.9183 151.718 42.6736C144.375 30.4291 134.31 21.7714 112.836 34.2882C109.728 36.0996 106.499 38.2859 103.272 40.7376Z" fill="white"/>
</svg>