<svg xmlns="http://www.w3.org/2000/svg" width="227" height="141" viewBox="0 0 227 141" fill="none">
  <g opacity="0.5">
    <rect x="0.00292969" y="27.0156" width="32" height="32" transform="rotate(-45 0.00292969 27.0156)" fill="#FF9B38" fill-opacity="0.35"/>
    <rect x="45.2583" y="27.0156" width="32" height="32" transform="rotate(-45 45.2583 27.0156)" fill="#FF9B38" fill-opacity="0.35"/>
    <rect x="45.2578" y="-18.2422" width="32" height="32" transform="rotate(-45 45.2578 -18.2422)" fill="#FF9B38" fill-opacity="0.35"/>
    <rect x="45.2578" y="72.2734" width="32" height="32" transform="rotate(-45 45.2578 72.2734)" fill="#FF9B38" fill-opacity="0.35"/>
    <rect x="90.5127" y="27.0156" width="32" height="32" transform="rotate(-45 90.5127 27.0156)" fill="#FF9B38" fill-opacity="0.35"/>
    <rect x="90.5122" y="-18.2422" width="32" height="32" transform="rotate(-45 90.5122 -18.2422)" fill="#FF9B38" fill-opacity="0.35"/>
    <rect x="135.768" y="-18.2422" width="32" height="32" transform="rotate(-45 135.768 -18.2422)" fill="#FF9B38" fill-opacity="0.35"/>
    <rect x="90.5142" y="72.2734" width="32" height="32" transform="rotate(-45 90.5142 72.2734)" fill="#FF9B38" fill-opacity="0.35"/>
    <rect x="90.5127" y="117.523" width="32" height="32" transform="rotate(-45 90.5127 117.523)" fill="#FF9B38" fill-opacity="0.35"/>
    <rect x="135.768" y="72.2734" width="32" height="32" transform="rotate(-45 135.768 72.2734)" fill="#FF9B38" fill-opacity="0.35"/>
    <rect x="181.022" y="27.0156" width="32" height="32" transform="rotate(-45 181.022 27.0156)" fill="#FF9B38" fill-opacity="0.35"/>
    <rect x="135.768" y="27.0156" width="32" height="32" transform="rotate(-45 135.768 27.0156)" fill="#FF9B38" fill-opacity="0.35"/>
  </g>
</svg>