<svg width="22" height="22" viewBox="0 0 22 22" fill="none" xmlns="http://www.w3.org/2000/svg">
<path d="M13.9709 3.41092L14.2395 5.27083H17.875C18.0573 5.27083 18.2322 5.34327 18.3611 5.4722C18.4901 5.60113 18.5625 5.776 18.5625 5.95833C18.5625 6.14067 18.4901 6.31554 18.3611 6.44447C18.2322 6.5734 18.0573 6.64583 17.875 6.64583H17.1701L16.3698 15.9821C16.3212 16.5504 16.2818 17.0179 16.2186 17.3956C16.1544 17.7888 16.0563 18.1408 15.8647 18.4672C15.5639 18.9797 15.1167 19.3906 14.5805 19.6469C14.2395 19.8092 13.8802 19.8761 13.4823 19.9072C13.1001 19.9375 12.6317 19.9375 12.0615 19.9375H9.9385C9.36833 19.9375 8.89992 19.9375 8.51767 19.9072C8.11983 19.8761 7.7605 19.8092 7.4195 19.6469C6.88333 19.3906 6.43608 18.9797 6.13525 18.4672C5.94275 18.1408 5.8465 17.7888 5.78142 17.3956C5.71817 17.017 5.67875 16.5504 5.63017 15.9821L4.82992 6.64583H4.125C3.94266 6.64583 3.7678 6.5734 3.63886 6.44447C3.50993 6.31554 3.4375 6.14067 3.4375 5.95833C3.4375 5.776 3.50993 5.60113 3.63886 5.4722C3.7678 5.34327 3.94266 5.27083 4.125 5.27083H7.7605L8.02908 3.41092L8.03917 3.355C8.206 2.63083 8.8275 2.0625 9.60667 2.0625H12.3933C13.1725 2.0625 13.794 2.63083 13.9608 3.355L13.9709 3.41092ZM9.14925 5.27083H12.8498L12.6152 3.64283C12.5712 3.48975 12.4593 3.4375 12.3924 3.4375H9.60758C9.54067 3.4375 9.42883 3.48975 9.38483 3.64283L9.14925 5.27083ZM10.3125 9.625C10.3125 9.44266 10.2401 9.2678 10.1111 9.13886C9.9822 9.00993 9.80734 8.9375 9.625 8.9375C9.44266 8.9375 9.2678 9.00993 9.13886 9.13886C9.00993 9.2678 8.9375 9.44266 8.9375 9.625V14.2083C8.9375 14.3907 9.00993 14.5655 9.13886 14.6945C9.2678 14.8234 9.44266 14.8958 9.625 14.8958C9.80734 14.8958 9.9822 14.8234 10.1111 14.6945C10.2401 14.5655 10.3125 14.3907 10.3125 14.2083V9.625ZM13.0625 9.625C13.0625 9.44266 12.9901 9.2678 12.8611 9.13886C12.7322 9.00993 12.5573 8.9375 12.375 8.9375C12.1927 8.9375 12.0178 9.00993 11.8889 9.13886C11.7599 9.2678 11.6875 9.44266 11.6875 9.625V14.2083C11.6875 14.3907 11.7599 14.5655 11.8889 14.6945C12.0178 14.8234 12.1927 14.8958 12.375 14.8958C12.5573 14.8958 12.7322 14.8234 12.8611 14.6945C12.9901 14.5655 13.0625 14.3907 13.0625 14.2083V9.625Z" fill="#B0B0B0"/>
</svg>
